<svg id="Layer_1" data-name="Layer 1" xmlns="http://www.w3.org/2000/svg" xmlns:xlink="http://www.w3.org/1999/xlink" viewBox="0 0 720 720"><defs><style>.cls-1{fill:url(#linear-gradient);}.cls-2{fill:url(#linear-gradient-2);}.cls-3{fill:url(#linear-gradient-3);}.cls-4{fill:#fff;}.cls-5{fill:url(#linear-gradient-4);}</style><linearGradient id="linear-gradient" x1="72" y1="324" x2="72" y2="576" gradientUnits="userSpaceOnUse"><stop offset="0" stop-color="#e06831"/><stop offset="1" stop-color="#c5342b"/></linearGradient><linearGradient id="linear-gradient-2" x1="720" y1="360.01" x2="0" y2="360.01" xlink:href="#linear-gradient"/><linearGradient id="linear-gradient-3" x1="114.64" y1="287.99" x2="648" y2="287.99" xlink:href="#linear-gradient"/><linearGradient id="linear-gradient-4" x1="647" y1="683.56" x2="719" y2="683.56" xlink:href="#linear-gradient"/></defs><path class="cls-1" d="M144,333V567a9,9,0,0,0-9,9H125v-4H107v4H95v-4H77v4H65v-4H47v4H35v-4H17v4H9a9,9,0,0,0-9-9V333a9,9,0,0,0,9-9H27a9,9,0,0,0,18,0H63a9,9,0,0,0,18,0H99a9,9,0,0,0,18,0h18A9,9,0,0,0,144,333Z" transform="translate(0)"/><path class="cls-2" d="M720,360A360,360,0,0,1,364,720c-1.34,0-2.69,0-4,0H0V585a9,9,0,0,0,9-9h8v5H35v-5H47v5H65v-5H77v5H95v-5h12v5h18v-5h10a9,9,0,0,0,18,0H360l2.79,0h.47q1.61,0,3.21-.06A288,288,0,0,0,364,0,358.32,358.32,0,0,1,576,72a362,362,0,0,1,72,72A358.34,358.34,0,0,1,720,360Z" transform="translate(0)"/><path class="cls-3" d="M609.47,144A288.29,288.29,0,0,0,364,0c-1.34,0-2.69,0-4,0H124a9,9,0,0,1-9,9h-.36v9h4.5V36h-4.5V48h4.5V66h-4.5V78h4.5V96h-4.5v12h4.5v18h-4.5v9H115a9,9,0,0,1,9,9H360l2.79,0C480.8,145.51,576,241.64,576,360S480.8,574.49,362.79,576h.47q1.61,0,3.21-.06A288.07,288.07,0,0,0,609.47,144Z" transform="translate(0)"/><rect class="cls-4" x="12.42" y="365.67" width="2.25" height="178.31"/><rect class="cls-4" x="17.54" y="365.67" width="4" height="178.31"/><rect class="cls-4" x="27.54" y="365.67" width="4" height="178.31"/><rect class="cls-4" x="34.54" y="365.67" width="6.93" height="178.31"/><rect class="cls-4" x="47.26" y="365.67" width="1.5" height="178.31"/><rect class="cls-4" x="86.51" y="365.67" width="2.25" height="178.31" transform="translate(175.27 909.65) rotate(-180)"/><rect class="cls-4" x="79.64" y="365.67" width="4" height="178.31" transform="translate(163.27 909.65) rotate(-180)"/><rect class="cls-4" x="69.64" y="365.67" width="4" height="178.31" transform="translate(143.27 909.65) rotate(-180)"/><rect class="cls-4" x="59.7" y="365.67" width="6.93" height="178.31" transform="translate(126.34 909.65) rotate(-180)"/><rect class="cls-4" x="52.42" y="365.67" width="1.5" height="178.31" transform="translate(106.34 909.65) rotate(-180)"/><rect class="cls-4" x="77.54" y="365.67" width="6.93" height="178.31"/><rect class="cls-4" x="90.26" y="365.67" width="1.5" height="178.31"/><rect class="cls-4" x="129.51" y="365.67" width="2.25" height="178.31" transform="translate(261.27 909.65) rotate(-180)"/><rect class="cls-4" x="122.64" y="365.67" width="4" height="178.31" transform="translate(249.27 909.65) rotate(-180)"/><rect class="cls-4" x="112.64" y="365.67" width="4" height="178.31" transform="translate(229.27 909.65) rotate(-180)"/><rect class="cls-4" x="102.7" y="365.67" width="6.93" height="178.31" transform="translate(212.34 909.65) rotate(-180)"/><rect class="cls-4" x="95.42" y="365.67" width="1.5" height="178.31" transform="translate(192.34 909.65) rotate(-180)"/><path class="cls-4" d="M110.14,18V36h4.5V48h-4.5V66h4.5V78h-4.5V96h4.5v12h-4.5v18h4.5v9a9,9,0,0,0-8.64,9H0V108A35.92,35.92,0,0,0,25.46,97.46a36,36,0,0,0,0-50.92A35.92,35.92,0,0,0,0,36V0H106a9,9,0,0,0,8.64,9v9Z" transform="translate(0)"/><rect class="cls-5" x="647" y="647.56" width="72" height="72" rx="36"/></svg>